<mxfile host="app.diagrams.net" agent="Mozilla/5.0 (X11; Linux x86_64) AppleWebKit/537.36 (KHTML, like Gecko) Chrome/137.0.0.0 Safari/537.36" version="27.1.5">
  <diagram name="Page-1" id="PtE3My8LQBNtHFtYppyo">
    <mxGraphModel dx="992" dy="1119" grid="1" gridSize="10" guides="1" tooltips="1" connect="1" arrows="1" fold="1" page="1" pageScale="1" pageWidth="827" pageHeight="1169" math="0" shadow="0">
      <root>
        <mxCell id="0" />
        <mxCell id="1" parent="0" />
        <mxCell id="68XTsUc2VfCwIY6Ec5oF-7" style="edgeStyle=orthogonalEdgeStyle;rounded=0;orthogonalLoop=1;jettySize=auto;html=1;" edge="1" parent="1" source="68XTsUc2VfCwIY6Ec5oF-1" target="68XTsUc2VfCwIY6Ec5oF-2">
          <mxGeometry relative="1" as="geometry" />
        </mxCell>
        <mxCell id="68XTsUc2VfCwIY6Ec5oF-1" value="Conventional Commit Validation" style="rounded=1;whiteSpace=wrap;html=1;" vertex="1" parent="1">
          <mxGeometry x="30" y="290" width="120" height="60" as="geometry" />
        </mxCell>
        <mxCell id="68XTsUc2VfCwIY6Ec5oF-8" style="edgeStyle=orthogonalEdgeStyle;rounded=0;orthogonalLoop=1;jettySize=auto;html=1;" edge="1" parent="1" source="68XTsUc2VfCwIY6Ec5oF-2" target="68XTsUc2VfCwIY6Ec5oF-3">
          <mxGeometry relative="1" as="geometry" />
        </mxCell>
        <mxCell id="68XTsUc2VfCwIY6Ec5oF-2" value="Basic File Hygiene" style="rounded=1;whiteSpace=wrap;html=1;" vertex="1" parent="1">
          <mxGeometry x="180" y="290" width="120" height="60" as="geometry" />
        </mxCell>
        <mxCell id="68XTsUc2VfCwIY6Ec5oF-9" style="edgeStyle=orthogonalEdgeStyle;rounded=0;orthogonalLoop=1;jettySize=auto;html=1;entryX=0;entryY=0.5;entryDx=0;entryDy=0;" edge="1" parent="1" source="68XTsUc2VfCwIY6Ec5oF-3" target="68XTsUc2VfCwIY6Ec5oF-4">
          <mxGeometry relative="1" as="geometry" />
        </mxCell>
        <mxCell id="68XTsUc2VfCwIY6Ec5oF-3" value="Code Formatting" style="rounded=1;whiteSpace=wrap;html=1;" vertex="1" parent="1">
          <mxGeometry x="330" y="290" width="120" height="60" as="geometry" />
        </mxCell>
        <mxCell id="68XTsUc2VfCwIY6Ec5oF-10" style="edgeStyle=orthogonalEdgeStyle;rounded=0;orthogonalLoop=1;jettySize=auto;html=1;" edge="1" parent="1" source="68XTsUc2VfCwIY6Ec5oF-4" target="68XTsUc2VfCwIY6Ec5oF-5">
          <mxGeometry relative="1" as="geometry" />
        </mxCell>
        <mxCell id="68XTsUc2VfCwIY6Ec5oF-4" value="Code Linting" style="rounded=1;whiteSpace=wrap;html=1;" vertex="1" parent="1">
          <mxGeometry x="480" y="290" width="120" height="60" as="geometry" />
        </mxCell>
        <mxCell id="68XTsUc2VfCwIY6Ec5oF-11" style="edgeStyle=orthogonalEdgeStyle;rounded=0;orthogonalLoop=1;jettySize=auto;html=1;" edge="1" parent="1" source="68XTsUc2VfCwIY6Ec5oF-5" target="68XTsUc2VfCwIY6Ec5oF-6">
          <mxGeometry relative="1" as="geometry" />
        </mxCell>
        <mxCell id="68XTsUc2VfCwIY6Ec5oF-5" value="Secret Detection with GitGuardian" style="rounded=1;whiteSpace=wrap;html=1;" vertex="1" parent="1">
          <mxGeometry x="630" y="290" width="120" height="60" as="geometry" />
        </mxCell>
        <mxCell id="68XTsUc2VfCwIY6Ec5oF-6" value="Test Coverage" style="rounded=1;whiteSpace=wrap;html=1;" vertex="1" parent="1">
          <mxGeometry x="780" y="290" width="120" height="60" as="geometry" />
        </mxCell>
        <mxCell id="68XTsUc2VfCwIY6Ec5oF-21" style="edgeStyle=orthogonalEdgeStyle;rounded=0;orthogonalLoop=1;jettySize=auto;html=1;" edge="1" parent="1" source="68XTsUc2VfCwIY6Ec5oF-15" target="68XTsUc2VfCwIY6Ec5oF-16">
          <mxGeometry relative="1" as="geometry" />
        </mxCell>
        <mxCell id="68XTsUc2VfCwIY6Ec5oF-15" value="Lint and Test" style="rounded=1;whiteSpace=wrap;html=1;" vertex="1" parent="1">
          <mxGeometry x="30" y="590" width="120" height="60" as="geometry" />
        </mxCell>
        <mxCell id="68XTsUc2VfCwIY6Ec5oF-22" style="edgeStyle=orthogonalEdgeStyle;rounded=0;orthogonalLoop=1;jettySize=auto;html=1;" edge="1" parent="1" source="68XTsUc2VfCwIY6Ec5oF-16" target="68XTsUc2VfCwIY6Ec5oF-17">
          <mxGeometry relative="1" as="geometry" />
        </mxCell>
        <mxCell id="68XTsUc2VfCwIY6Ec5oF-23" style="edgeStyle=orthogonalEdgeStyle;rounded=0;orthogonalLoop=1;jettySize=auto;html=1;entryX=0;entryY=0.5;entryDx=0;entryDy=0;curved=1;exitX=0.5;exitY=1;exitDx=0;exitDy=0;" edge="1" parent="1" source="68XTsUc2VfCwIY6Ec5oF-16" target="68XTsUc2VfCwIY6Ec5oF-18">
          <mxGeometry relative="1" as="geometry" />
        </mxCell>
        <mxCell id="68XTsUc2VfCwIY6Ec5oF-16" value="GitGuardian Full Repo History Scan" style="rounded=1;whiteSpace=wrap;html=1;" vertex="1" parent="1">
          <mxGeometry x="180" y="590" width="120" height="60" as="geometry" />
        </mxCell>
        <mxCell id="68XTsUc2VfCwIY6Ec5oF-25" style="edgeStyle=orthogonalEdgeStyle;rounded=0;orthogonalLoop=1;jettySize=auto;html=1;entryX=0;entryY=0.5;entryDx=0;entryDy=0;" edge="1" parent="1" source="68XTsUc2VfCwIY6Ec5oF-17" target="68XTsUc2VfCwIY6Ec5oF-19">
          <mxGeometry relative="1" as="geometry" />
        </mxCell>
        <mxCell id="68XTsUc2VfCwIY6Ec5oF-17" value="Sonar Cloud" style="rounded=1;whiteSpace=wrap;html=1;" vertex="1" parent="1">
          <mxGeometry x="330" y="590" width="120" height="60" as="geometry" />
        </mxCell>
        <mxCell id="68XTsUc2VfCwIY6Ec5oF-24" style="edgeStyle=orthogonalEdgeStyle;rounded=0;orthogonalLoop=1;jettySize=auto;html=1;entryX=0.5;entryY=1;entryDx=0;entryDy=0;curved=1;" edge="1" parent="1" source="68XTsUc2VfCwIY6Ec5oF-18" target="68XTsUc2VfCwIY6Ec5oF-19">
          <mxGeometry relative="1" as="geometry" />
        </mxCell>
        <mxCell id="68XTsUc2VfCwIY6Ec5oF-18" value="Semgrep" style="rounded=1;whiteSpace=wrap;html=1;" vertex="1" parent="1">
          <mxGeometry x="330" y="670" width="120" height="60" as="geometry" />
        </mxCell>
        <mxCell id="68XTsUc2VfCwIY6Ec5oF-26" style="edgeStyle=orthogonalEdgeStyle;rounded=0;orthogonalLoop=1;jettySize=auto;html=1;entryX=0;entryY=0.5;entryDx=0;entryDy=0;" edge="1" parent="1" source="68XTsUc2VfCwIY6Ec5oF-19" target="68XTsUc2VfCwIY6Ec5oF-20">
          <mxGeometry relative="1" as="geometry" />
        </mxCell>
        <mxCell id="68XTsUc2VfCwIY6Ec5oF-19" value="Build" style="rounded=1;whiteSpace=wrap;html=1;" vertex="1" parent="1">
          <mxGeometry x="480" y="590" width="120" height="60" as="geometry" />
        </mxCell>
        <mxCell id="68XTsUc2VfCwIY6Ec5oF-20" value="Release" style="rounded=1;whiteSpace=wrap;html=1;" vertex="1" parent="1">
          <mxGeometry x="630" y="590" width="120" height="60" as="geometry" />
        </mxCell>
        <mxCell id="68XTsUc2VfCwIY6Ec5oF-32" style="edgeStyle=orthogonalEdgeStyle;rounded=0;orthogonalLoop=1;jettySize=auto;html=1;entryX=0;entryY=0.5;entryDx=0;entryDy=0;" edge="1" parent="1" source="68XTsUc2VfCwIY6Ec5oF-27" target="68XTsUc2VfCwIY6Ec5oF-28">
          <mxGeometry relative="1" as="geometry" />
        </mxCell>
        <mxCell id="68XTsUc2VfCwIY6Ec5oF-27" value="AI Writes Code" style="rounded=1;whiteSpace=wrap;html=1;" vertex="1" parent="1">
          <mxGeometry x="180" y="900" width="120" height="60" as="geometry" />
        </mxCell>
        <mxCell id="68XTsUc2VfCwIY6Ec5oF-33" style="edgeStyle=orthogonalEdgeStyle;rounded=0;orthogonalLoop=1;jettySize=auto;html=1;entryX=0;entryY=0.5;entryDx=0;entryDy=0;" edge="1" parent="1" source="68XTsUc2VfCwIY6Ec5oF-28" target="68XTsUc2VfCwIY6Ec5oF-29">
          <mxGeometry relative="1" as="geometry" />
        </mxCell>
        <mxCell id="68XTsUc2VfCwIY6Ec5oF-28" value="Commits" style="rounded=1;whiteSpace=wrap;html=1;" vertex="1" parent="1">
          <mxGeometry x="342" y="900" width="120" height="60" as="geometry" />
        </mxCell>
        <mxCell id="68XTsUc2VfCwIY6Ec5oF-30" style="edgeStyle=orthogonalEdgeStyle;rounded=0;orthogonalLoop=1;jettySize=auto;html=1;entryX=0.5;entryY=1;entryDx=0;entryDy=0;" edge="1" parent="1" source="68XTsUc2VfCwIY6Ec5oF-29" target="68XTsUc2VfCwIY6Ec5oF-27">
          <mxGeometry relative="1" as="geometry">
            <Array as="points">
              <mxPoint x="590" y="1000" />
              <mxPoint x="240" y="1000" />
            </Array>
          </mxGeometry>
        </mxCell>
        <mxCell id="68XTsUc2VfCwIY6Ec5oF-31" value="Fails" style="edgeLabel;html=1;align=center;verticalAlign=middle;resizable=0;points=[];" vertex="1" connectable="0" parent="68XTsUc2VfCwIY6Ec5oF-30">
          <mxGeometry x="0.1617" y="2" relative="1" as="geometry">
            <mxPoint x="37" y="8" as="offset" />
          </mxGeometry>
        </mxCell>
        <mxCell id="68XTsUc2VfCwIY6Ec5oF-35" style="edgeStyle=orthogonalEdgeStyle;rounded=0;orthogonalLoop=1;jettySize=auto;html=1;entryX=0;entryY=0.5;entryDx=0;entryDy=0;" edge="1" parent="1" source="68XTsUc2VfCwIY6Ec5oF-29" target="68XTsUc2VfCwIY6Ec5oF-34">
          <mxGeometry relative="1" as="geometry" />
        </mxCell>
        <mxCell id="68XTsUc2VfCwIY6Ec5oF-45" value="Pass" style="edgeLabel;html=1;align=center;verticalAlign=middle;resizable=0;points=[];" vertex="1" connectable="0" parent="68XTsUc2VfCwIY6Ec5oF-35">
          <mxGeometry x="0.0476" y="-4" relative="1" as="geometry">
            <mxPoint x="-3" y="11" as="offset" />
          </mxGeometry>
        </mxCell>
        <mxCell id="68XTsUc2VfCwIY6Ec5oF-29" value="Pre-commit Checks" style="rounded=1;whiteSpace=wrap;html=1;" vertex="1" parent="1">
          <mxGeometry x="504" y="900" width="120" height="60" as="geometry" />
        </mxCell>
        <mxCell id="68XTsUc2VfCwIY6Ec5oF-37" style="edgeStyle=orthogonalEdgeStyle;rounded=0;orthogonalLoop=1;jettySize=auto;html=1;entryX=0.5;entryY=0;entryDx=0;entryDy=0;" edge="1" parent="1" source="68XTsUc2VfCwIY6Ec5oF-34" target="68XTsUc2VfCwIY6Ec5oF-27">
          <mxGeometry relative="1" as="geometry">
            <Array as="points">
              <mxPoint x="770" y="860" />
              <mxPoint x="240" y="860" />
            </Array>
          </mxGeometry>
        </mxCell>
        <mxCell id="68XTsUc2VfCwIY6Ec5oF-38" value="Fails" style="edgeLabel;html=1;align=center;verticalAlign=middle;resizable=0;points=[];" vertex="1" connectable="0" parent="68XTsUc2VfCwIY6Ec5oF-37">
          <mxGeometry x="0.0098" y="3" relative="1" as="geometry">
            <mxPoint x="8" y="-13" as="offset" />
          </mxGeometry>
        </mxCell>
        <mxCell id="68XTsUc2VfCwIY6Ec5oF-41" style="edgeStyle=orthogonalEdgeStyle;rounded=0;orthogonalLoop=1;jettySize=auto;html=1;entryX=0;entryY=0.5;entryDx=0;entryDy=0;" edge="1" parent="1" source="68XTsUc2VfCwIY6Ec5oF-34" target="68XTsUc2VfCwIY6Ec5oF-39">
          <mxGeometry relative="1" as="geometry" />
        </mxCell>
        <mxCell id="68XTsUc2VfCwIY6Ec5oF-43" value="Pass" style="edgeLabel;html=1;align=center;verticalAlign=middle;resizable=0;points=[];" vertex="1" connectable="0" parent="68XTsUc2VfCwIY6Ec5oF-41">
          <mxGeometry x="0.4286" y="-4" relative="1" as="geometry">
            <mxPoint x="-11" y="7" as="offset" />
          </mxGeometry>
        </mxCell>
        <mxCell id="68XTsUc2VfCwIY6Ec5oF-34" value="Post-commit Checks" style="rounded=1;whiteSpace=wrap;html=1;" vertex="1" parent="1">
          <mxGeometry x="666" y="900" width="120" height="60" as="geometry" />
        </mxCell>
        <mxCell id="68XTsUc2VfCwIY6Ec5oF-42" style="edgeStyle=orthogonalEdgeStyle;rounded=0;orthogonalLoop=1;jettySize=auto;html=1;entryX=0;entryY=0.5;entryDx=0;entryDy=0;" edge="1" parent="1" source="68XTsUc2VfCwIY6Ec5oF-39" target="68XTsUc2VfCwIY6Ec5oF-40">
          <mxGeometry relative="1" as="geometry" />
        </mxCell>
        <mxCell id="68XTsUc2VfCwIY6Ec5oF-39" value="Build" style="rounded=1;whiteSpace=wrap;html=1;" vertex="1" parent="1">
          <mxGeometry x="828" y="900" width="120" height="60" as="geometry" />
        </mxCell>
        <mxCell id="68XTsUc2VfCwIY6Ec5oF-40" value="Release" style="rounded=1;whiteSpace=wrap;html=1;" vertex="1" parent="1">
          <mxGeometry x="990" y="900" width="120" height="60" as="geometry" />
        </mxCell>
      </root>
    </mxGraphModel>
  </diagram>
</mxfile>
